<svg width="29" height="27" viewBox="0 0 29 27" fill="none" xmlns="http://www.w3.org/2000/svg">
<path d="M26 3.58333H21.5092L18.9167 0.75H10.4167L7.82417 3.58333H3.33333C1.775 3.58333 0.5 4.85833 0.5 6.41667V23.4167C0.5 24.975 1.775 26.25 3.33333 26.25H26C27.5583 26.25 28.8333 24.975 28.8333 23.4167V6.41667C28.8333 4.85833 27.5583 3.58333 26 3.58333ZM26 23.4167H3.33333V6.41667H9.07083L11.6633 3.58333H17.67L20.2625 6.41667H26V23.4167ZM14.6667 7.83333C10.7567 7.83333 7.58333 11.0067 7.58333 14.9167C7.58333 18.8267 10.7567 22 14.6667 22C18.5767 22 21.75 18.8267 21.75 14.9167C21.75 11.0067 18.5767 7.83333 14.6667 7.83333ZM14.6667 19.1667C12.3292 19.1667 10.4167 17.2542 10.4167 14.9167C10.4167 12.5792 12.3292 10.6667 14.6667 10.6667C17.0042 10.6667 18.9167 12.5792 18.9167 14.9167C18.9167 17.2542 17.0042 19.1667 14.6667 19.1667Z" fill="white"/>
</svg>
